<svg width="223" height="123" viewBox="0 0 223 123" fill="none" xmlns="http://www.w3.org/2000/svg">
<path d="M26.4483 93.7743C26.3531 93.1897 26.1597 92.1146 26.3026 91.4288C26.3531 91.1859 26.731 91.3245 26.9258 91.5198C27.3238 91.919 27.3139 92.6933 27.1711 93.2323C27.1174 93.4349 26.7426 93.2867 26.5478 93.0913C26.1498 92.6922 26.1597 92.0148 26.2549 91.7196C26.2847 91.6274 26.5406 92.006 26.6387 92.4466C26.7368 92.8872 26.7368 93.4688 26.5464 93.7684C26.3559 94.068 25.9751 94.068 25.7789 93.8257C25.5827 93.5833 25.5827 93.0987 25.5827 92.5993" stroke="black" stroke-width="2" stroke-linecap="round"/>
<path d="M17.2151 95.243C17.2151 95.0491 17.5007 94.9492 17.9811 94.8038C18.2126 94.7337 18.2711 94.3676 18.2726 94.0724C18.274 93.7772 18.1788 93.4864 17.9869 93.2881C17.5948 92.883 16.8342 92.893 16.2571 93.0869C15.9975 93.1741 16.0609 93.6685 16.1561 93.7229C16.2514 93.7772 16.4418 93.4864 16.4447 93.482C16.2571 93.7684 16.0609 94.5527 16.2037 95.3839C16.3466 95.7306 16.6322 95.9244 17.5036 96.1242" stroke="black" stroke-width="2" stroke-linecap="round"/>
<path d="M12.0214 104.643C13.8334 104.643 17.4978 104.449 19.8985 104.3C21.9847 104.171 24.0361 103.174 25.2898 102.882C26.632 102.569 27.8852 101.317 29.0884 100.485C29.8069 99.9486 30.7706 99.0674 31.6838 98.0408C32.0257 97.5958 32.1209 97.305 32.5076 97.0054" stroke="black" stroke-width="2" stroke-linecap="round"/>
<path d="M34.1024 75.6116C33.8756 74.3383 32.9616 71.5398 31.4187 68.806C28.1007 62.9268 28.1509 60.6956 27.0049 57.4337C26.6372 56.3869 26.4294 55.6759 26.4276 55.0934C26.422 53.179 31.4565 55.0847 33.1231 55.438C34.9878 55.8333 36.5008 56.372 37.9904 56.6623C39.0161 56.7218 39.9404 56.8372 40.7394 57.0121C41.1981 57.0716 41.7651 57.0716 42.3492 57.0716" stroke="#ED8C50" stroke-width="2" stroke-linecap="round"/>
<path d="M42.0056 56.7218C41.6654 55.7948 39.8408 52.0833 38.2309 49.1501C37.2343 47.3342 35.8273 45.8846 34.8497 44.1933C33.6445 42.108 32.0441 39.4691 31.5287 38.5963C31.1349 37.9295 37.4767 37.4822 46.9245 37.5399C50.249 37.5976 50.5892 37.713 50.9345 37.8302C51.2799 37.9474 51.62 38.0629 51.9705 38.1818" stroke="#A9C335" stroke-width="2" stroke-linecap="round"/>
<path d="M52.3141 38.5316C52.3141 38.4162 52.3141 38.3007 52.3141 34.3164C52.3141 30.332 52.3141 22.4822 53.2213 19.0733C54.1284 15.6644 55.9428 16.9342 57.0475 17.6461C59.2784 19.0836 61.1245 20.6842 62.9027 22.1429C64.3374 23.9515 65.7084 25.5816 66.9093 26.8042C67.4299 27.3341 67.7701 27.6804 68.4642 28.3871" stroke="#809CB7" stroke-width="2" stroke-linecap="round"/>
<path d="M68.4642 28.3871C68.4642 25.1513 68.9178 18.1376 69.55 15.4545C70.3146 12.2099 71.7836 9.04249 72.5275 7.11328C73.0721 5.70101 73.8384 3.1027 74.761 1.39562C75.8433 -0.606858 79.7899 5.52339 82.3155 7.91435C83.898 9.41255 87.109 14.0098 89.248 17.6496C90.9128 20.3379 91.3698 21.3873 91.8268 22.0852C92.0571 22.4368 92.2839 22.7831 92.8611 23.4897" stroke="#E77878" stroke-width="2" stroke-linecap="round"/>
<path d="M93.2048 20.3414C93.5449 19.1835 96.7303 13.1563 99.84 8.34286C101.206 6.22883 102.366 4.95319 102.879 4.48619C103.111 4.27569 103.506 4.48095 103.738 4.71357C104.905 5.88391 105.795 8.55275 106.889 10.482C107.673 11.8634 108.887 14.4925 109.753 16.5459C110.612 18.239 111.3 19.2885 111.7 19.9863C111.874 20.3379 111.987 20.6842 112.791 21.7406" stroke="#809CB7" stroke-width="2" stroke-linecap="round"/>
<path d="M112.791 21.7406C114.045 20.233 116.103 17.8997 117.935 15.8638C122.183 11.142 123.323 9.9695 124.522 8.92181C125.116 8.40259 125.835 8.105 126.412 8.79238C129.594 12.5808 129.505 17.6269 130.029 20.6265C130.199 21.3838 130.429 22.2024 130.657 23.0752C130.773 23.4862 130.886 23.8325 131.346 24.889" stroke="#CC789F" stroke-width="2" stroke-linecap="round"/>
<path d="M131.346 24.889C133.631 24.7735 138.411 23.1539 141.591 21.8019C143.697 20.9066 146.459 19.5298 148.12 18.8862C149.631 18.3008 150.586 17.7773 151.101 17.7755C152.358 17.7713 149.682 24.6091 149.101 29.3071C148.527 33.0466 148.301 34.6767 148.127 36.6584C148.07 37.1289 147.957 37.4752 147.84 37.832" stroke="#ED8C50" stroke-width="2" stroke-linecap="round"/>
<path d="M147.84 37.832C149.431 37.832 154.005 37.3702 157.219 36.3208C161.678 34.865 163.296 34.4528 165.299 33.9858C166.273 33.7588 167.079 33.6342 167.538 33.8074C168.811 34.2878 166.286 37.4682 165.425 39.6318C164.594 41.7204 164.107 43.422 163.363 45.1133C162.733 46.5738 161.365 50.2783 160.556 52.8686C160.441 53.2202 160.327 53.5665 160.21 53.9233" stroke="#809CB7" stroke-width="2" stroke-linecap="round"/>
<path d="M160.21 53.9233C161.238 53.9233 162.609 53.6924 165.126 53.1677C166.965 52.7842 168.677 52.1742 174.562 50.6648C176.46 50.178 177.388 49.9599 177.903 50.1891C177.965 52.5206 177.735 54.8398 177.45 58.6807C177.391 60.7656 177.391 64.4596 177.391 68.2656" stroke="#CC789F" stroke-width="2" stroke-linecap="round"/>
<path d="M205.224 82.9577C205.451 82.9577 205.908 82.9577 206.594 82.8422C208.224 82.5677 209.001 80.8623 209.63 80.5107C210.944 79.7757 211.293 83.5313 211.751 85.0513C211.858 85.4055 211.98 85.7491 212.208 86.043C212.437 86.3368 212.777 86.5677 213.066 86.5135C214.5 86.244 215.182 84.0141 216.217 82.3227C216.678 81.5682 217.248 80.9777 217.876 80.8011C218.852 81.9047 219.54 83.3005 219.713 85.2821C219.77 85.7526 219.883 86.099 220 86.4558" stroke="#9E0B0B" stroke-width="2" stroke-linecap="round"/>
<path d="M35.2967 76.9174C36.2727 74.9202 38.9049 70.9158 41.0392 66.0635C42.9528 61.7129 43.834 56.8655 44.3319 52.8461C44.8591 48.5895 47.7773 44.8223 50.8926 41.6359C54.2112 38.2414 56.9653 34.4452 60.9135 32.5985C65.2562 30.5674 69.781 29.086 73.7293 26.9132C77.7088 24.7232 83.2475 24.068 88.5118 22.8938C93.6767 21.7417 112.034 21.7196 123.839 23.3855C127.968 23.9682 133.19 26.0551 138.626 27.9017C143.772 29.6495 147.011 35.7498 151.28 39.7692C154.905 43.1834 157.52 47.793 160.487 51.8124C163.61 56.0419 168.029 60.8397 172.475 64.6936C177.027 68.6392 186.069 73.204 192.029 76.9073C196.932 79.9541 202.868 82.5977 207.797 84.6049C213.023 86.733 218.641 85.9497 220.8 86.7827C227.402 89.3299 200.049 85.9497 191.073 87.1139C188.816 87.4066 187.124 89.6229 185.483 91.1233C182.413 93.9292 181.316 101.325 180 105.344C178.684 109.364 180 108 178.5 109.5C177 111 171.254 110.889 166 110.392C163.949 110.198 162.335 107.015 162 105.344C161.213 101.421 164.115 98.0029 163.134 96.1663C159.845 90.0086 147.691 94.3097 146.05 95.3083C144.411 96.3051 150.765 102.98 148 108.5C146.49 111.514 138.349 111.322 135.5 109.5C130.354 106.21 127.639 96.9993 126.658 95.1627C123.663 89.5549 112.211 93.6373 108.263 94.9771C104.315 96.3169 101.357 97.3205 99.5531 98.319C97.6186 99.3898 95.9399 107.477 93.5 114C92.336 117.112 89.7243 114.378 87.5 115.5C84.5158 117.005 79.1676 117.417 79 115.912C78.6132 112.437 81.3054 104.024 80.3245 102.188C79.82 101.243 78.693 100.683 77.5395 100.341C72.3241 98.7984 66.2124 102.67 62.2542 104.341C60.491 105.085 65.1729 110.242 66.5 115.912C67.9094 121.933 58.3257 120.734 56.3541 120.905C54.3824 121.076 50.594 122.179 48.5 117C46.882 112.999 45.2609 114.406 41.7293 108.711C37.7839 102.349 30.3873 110.698 26.4391 112.204C22.2338 113.807 18.5574 115.716 9.69968 115.726C6.57127 115.73 5.07121 113.057 3.92272 111.055C1.64148 107.078 1.77854 101.696 2.26652 97.6868C2.94343 92.1252 9.64545 90.6466 13.7564 88.4688C19.3433 85.509 22.4612 80.9518 26.4095 78.0966C28.3762 77.2586 30.3577 76.5862 32.3245 75.9188C33.3152 75.5826 34.2912 75.2514 37.2684 72.903" stroke="#4D845E" stroke-width="2" stroke-linecap="round"/>
</svg>
