<svg width="224" height="122" viewBox="0 0 224 122" fill="none" xmlns="http://www.w3.org/2000/svg">
<path d="M26.588 93.4418C26.4923 92.8594 26.2979 91.7881 26.4415 91.1047C26.4924 90.8627 26.8723 91.0008 27.0681 91.1954C27.4681 91.5932 27.4582 92.3647 27.3146 92.9018C27.2607 93.1036 26.8839 92.9559 26.6881 92.7613C26.288 92.3636 26.2979 91.6886 26.3937 91.3945C26.4236 91.3026 26.6808 91.6798 26.7795 92.1189C26.8781 92.5579 26.8781 93.1374 26.6866 93.4359C26.4952 93.7345 26.1123 93.7345 25.9151 93.493C25.7178 93.2516 25.7178 92.7686 25.7178 92.2711" stroke="black" stroke-width="2" stroke-linecap="round"/>
<path d="M17.306 94.9052C17.306 94.7121 17.5932 94.6125 18.0761 94.4677C18.3089 94.3979 18.3677 94.033 18.3691 93.7389C18.3706 93.4447 18.2748 93.155 18.0819 92.9574C17.6878 92.5537 16.9231 92.5637 16.343 92.7569C16.082 92.8438 16.1458 93.3364 16.2415 93.3906C16.3372 93.4447 16.5287 93.155 16.5316 93.1506C16.343 93.436 16.1458 94.2174 16.2894 95.0457C16.4329 95.3911 16.7201 95.5843 17.5961 95.7833" stroke="black" stroke-width="2" stroke-linecap="round"/>
<path d="M12.0849 104.271C13.9065 104.271 17.5903 104.078 20.0036 103.93C22.1009 103.802 24.1631 102.808 25.4234 102.517C26.7727 102.205 28.0325 100.958 29.2421 100.128C29.9643 99.5941 30.9331 98.716 31.8512 97.6931C32.1949 97.2496 32.2906 96.9599 32.6793 96.6613" stroke="black" stroke-width="2" stroke-linecap="round"/>
<path d="M34.2825 75.3442C34.0546 74.0755 33.1357 71.287 31.5847 68.563C28.2492 62.7049 28.2996 60.4817 27.1476 57.2314C26.7779 56.1884 26.569 55.4799 26.5673 54.8996C26.5616 52.992 31.6227 54.8909 33.2981 55.2429C35.1727 55.6368 36.6937 56.1735 38.1911 56.4629C39.2223 56.5221 40.1515 56.6371 40.9546 56.8114C41.4158 56.8707 41.9857 56.8707 42.573 56.8707" stroke="#ED8C50" stroke-width="2" stroke-linecap="round"/>
<path d="M42.2275 56.5221C41.8855 55.5984 40.0513 51.9002 38.4329 48.9776C37.431 47.1682 36.0166 45.7238 35.0339 44.0385C33.8222 41.9607 32.2134 39.3312 31.6952 38.4616C31.2994 37.7971 37.6747 37.3514 47.1724 37.4089C50.5145 37.4665 50.8565 37.5815 51.2036 37.6982C51.5508 37.815 51.8928 37.93 52.2451 38.0485" stroke="#A9C335" stroke-width="2" stroke-linecap="round"/>
<path d="M52.5905 38.3971C52.5905 38.2821 52.5905 38.167 52.5905 34.197C52.5905 30.2269 52.5905 22.4053 53.5025 19.0086C54.4144 15.6119 56.2383 16.8771 57.3489 17.5864C59.5916 19.0188 61.4475 20.6137 63.2351 22.0672C64.6773 23.8692 66.0556 25.4935 67.2629 26.7117C67.7862 27.2398 68.1282 27.5848 68.8259 28.2889" stroke="#809CB7" stroke-width="2" stroke-linecap="round"/>
<path d="M68.8259 28.2889C68.8259 25.0648 69.2819 18.0762 69.9175 15.4027C70.6862 12.1697 72.1628 9.01367 72.9107 7.09138C73.4582 5.68416 74.2285 3.09516 75.156 1.3942C76.244 -0.601099 80.2115 5.50718 82.7504 7.88957C84.3413 9.3824 87.5692 13.9632 89.7195 17.5899C91.3932 20.2686 91.8526 21.3143 92.312 22.0097C92.5434 22.36 92.7714 22.705 93.3518 23.4091" stroke="#E77878" stroke-width="2" stroke-linecap="round"/>
<path d="M93.6972 20.2721C94.0392 19.1184 97.2414 13.1127 100.368 8.31655C101.741 6.2101 102.906 4.93903 103.423 4.4737C103.656 4.26395 104.053 4.46847 104.286 4.70026C105.46 5.86641 106.354 8.52569 107.454 10.448C108.242 11.8245 109.463 14.4442 110.333 16.4902C111.197 18.1773 111.888 19.2229 112.29 19.9183C112.465 20.2686 112.579 20.6137 113.387 21.6663" stroke="#809CB7" stroke-width="2" stroke-linecap="round"/>
<path d="M113.387 21.6663C114.648 20.164 116.717 17.8392 118.558 15.8106C122.828 11.1057 123.974 9.93735 125.18 8.89342C125.778 8.37606 126.5 8.07954 127.08 8.76446C130.278 12.5393 130.189 17.5673 130.716 20.5562C130.887 21.3108 131.118 22.1264 131.348 22.9961C131.464 23.4056 131.577 23.7507 132.04 24.8033" stroke="#CC789F" stroke-width="2" stroke-linecap="round"/>
<path d="M132.04 24.8033C134.338 24.6883 139.142 23.0745 142.339 21.7273C144.456 20.8352 147.233 19.4634 148.903 18.8221C150.422 18.2388 151.381 17.7172 151.899 17.7154C153.163 17.7112 150.473 24.5245 149.889 29.2056C149.312 32.9317 149.084 34.556 148.91 36.5306C148.853 36.9994 148.739 37.3445 148.621 37.7" stroke="#ED8C50" stroke-width="2" stroke-linecap="round"/>
<path d="M148.621 37.7C150.221 37.7 154.818 37.2399 158.05 36.1942C162.533 34.7437 164.159 34.3329 166.173 33.8676C167.152 33.6414 167.962 33.5173 168.423 33.6898C169.703 34.1685 167.164 37.3375 166.299 39.4933C165.463 41.5745 164.974 43.2699 164.226 44.9552C163.592 46.4105 162.218 50.1017 161.404 52.6828C161.288 53.0331 161.174 53.3781 161.057 53.7337" stroke="#809CB7" stroke-width="2" stroke-linecap="round"/>
<path d="M161.057 53.7337C162.09 53.7337 163.468 53.5036 165.998 52.9808C167.847 52.5987 169.568 51.9909 175.484 50.4868C177.392 50.0017 178.325 49.7845 178.843 50.0128C178.905 52.3359 178.674 54.6469 178.387 58.474C178.329 60.5514 178.329 64.2322 178.329 68.0245" stroke="#CC789F" stroke-width="2" stroke-linecap="round"/>
<path d="M206.309 82.664C206.537 82.664 206.996 82.664 207.685 82.5489C209.324 82.2754 210.105 80.5761 210.737 80.2258C212.059 79.4934 212.409 83.2356 212.87 84.7501C212.978 85.103 213.1 85.4454 213.33 85.7382C213.559 86.031 213.901 86.2611 214.192 86.207C215.634 85.9386 216.319 83.7166 217.359 82.0313C217.823 81.2795 218.395 80.6911 219.028 80.5151C220.009 81.6148 220.7 83.0055 220.874 84.9801C220.931 85.4489 221.045 85.794 221.162 86.1495" stroke="#9E0B0B" stroke-width="2" stroke-linecap="round"/>
<path d="M35.4832 76.6453C36.4644 74.6553 39.1104 70.6653 41.256 65.8303C43.1797 61.4953 44.0656 56.6653 44.5661 52.6603C45.0961 48.419 48.0298 44.6653 51.1615 41.4903C54.4977 38.108 57.2662 34.3253 61.2353 32.4853C65.601 30.4615 70.1497 28.9853 74.1188 26.8203C78.1194 24.6381 83.6873 23.9853 88.9795 22.8153C94.1716 21.6674 112.626 21.6453 124.493 23.3053C128.644 23.8859 133.893 25.9653 139.359 27.8053C144.532 29.5469 147.788 35.6253 152.079 39.6303C155.724 43.0322 158.352 47.6253 161.335 51.6303C164.474 55.8446 168.917 60.6253 173.386 64.4653C177.962 68.3968 187.053 72.9453 193.043 76.6353C197.972 79.6711 203.94 82.3053 208.895 84.3053C214.149 86.4257 219.796 85.6453 221.967 86.4753C228.604 89.0134 201.105 85.6453 192.082 86.8053C189.813 87.097 188.113 89.3053 186.463 90.8003C183.377 93.5962 184.823 100.965 183.5 104.97C182.177 108.975 182.654 108.165 182 110C181.333 111.871 175.782 110.495 170.5 110C168.438 109.807 166.337 106.635 166 104.97C165.209 101.061 164.982 97.6553 163.996 95.8253C160.69 89.6896 148.471 93.9753 146.821 94.9703C145.174 95.9636 149.601 102.65 146.821 108.15C145.304 111.153 135.864 110.815 133 109C127.826 105.722 128.314 96.6553 127.328 94.8253C124.317 89.2376 112.804 93.3053 108.835 94.6403C104.866 95.9753 101.893 96.9753 100.079 97.9703C98.1344 99.0372 98.9528 107 96.5 113.5C95.3299 116.601 92.2361 113.882 90 115C87 116.5 83.6685 117 83.5 115.5C83.1112 112.038 81.735 103.655 80.7489 101.825C80.2417 100.884 79.1087 100.325 77.9492 99.9853C72.7062 98.4479 66.5622 102.305 62.5832 103.97C60.8106 104.712 61.249 109.85 62.5832 115.5C64 121.5 58.6339 120.305 56.6518 120.475C54.6697 120.645 47.6051 121.66 45.5 116.5C43.8734 112.513 45.5 114 41.9497 108.325C37.9836 101.986 30.5479 110.305 26.5788 111.805C22.3513 113.403 18.6554 115.305 9.75092 115.315C6.60599 115.319 5.098 112.655 3.94344 110.66C1.65016 106.698 1.78793 101.335 2.2785 97.3403C2.95898 91.7987 9.69642 90.3253 13.829 88.1553C19.4455 85.2062 22.5799 80.6653 26.549 77.8203C28.5261 76.9853 30.5181 76.3153 32.4952 75.6503C33.4912 75.3153 34.4724 74.9853 37.4653 72.6453" stroke="#4D845E" stroke-width="2" stroke-linecap="round"/>
</svg>
